<svg width="100" height="100" viewBox="0 0 100 100" fill="none" xmlns="http://www.w3.org/2000/svg">
    <rect width="100" height="100" fill="#FFFFFF"/>
    <path d="M50 10C27.909 10 10 27.909 10 50C10 72.091 27.909 90 50 90C72.091 90 90 72.091 90 50C90 27.909 72.091 10 50 10Z" fill="#FF7F50"/>
    <path d="M50 15L65 45H35L50 15Z" fill="#FFFFFF"/>
    <path d="M50 50C50 50 60 40 70 50C80 60 70 70 50 70C30 70 20 60 30 50C40 40 50 50 50 50Z" fill="#FFFFFF"/>
    <path d="M50 50C50 50 40 60 30 50C20 40 30 30 50 30C70 30 80 40 70 50C60 60 50 50 50 50Z" fill="#D3D3D3"/>
</svg>